inDegrees=yes
name=ik_iyer
DataType=double
version=3
OpenSimVersion=4.5
endheader
time	gndpitch	gndroll	gndyaw	spine_tx	spine_ty	spine_tz	pitch2	roll2	yaw2	aux7jnt_r3	aux7jnt_r1	aux7jnt_r2	aux6jnt_r3	aux6jnt_r1	aux6jnt_r2	aux5jnt_r3	aux5jnt_r1	aux5jnt_r2	aux4jnt_r3	aux4jnt_r1	aux4jnt_r2	aux3jnt_r3	aux3jnt_r1	aux3jnt_r2	pitch1	roll1	yaw1	aux1jnt_r3	aux1jnt_r1	aux1jnt_r2
35.57499999999905	4.21296440140691e-09	8.002416233845703e-10	4.440363815649541e-10	-3.97872216927308e-17	8.44526185968539e-17	-7.30666612219483e-19	-0.5758495953688721	-0.06882298801111172	0.4700145349646961	-6.169837003119635	-0.5402270698145785	5.062811025510441	-7.258613976358177	-0.6190933084746845	5.897632800750269	-7.258613976358177	-0.8517449846366431	5.897632800750269	-5.443960482268634	-0.8517449846366431	5.897632800750269	-3.629306988179088	-0.772881005300992	2.53140551275522	-0.2791014645463996	0.1041846763065237	0.1700307845364347	-8.891178403851248	2.984671121150217	1.081369209135423
35.59999999999905	4.21296440140691e-09	8.002416233845703e-10	4.440363815649541e-10	-3.97872216927308e-17	8.44526185968539e-17	-7.30666612219483e-19	-0.5758499975541246	-0.06904253159822776	0.4700136980967443	-6.169841312261244	-0.5419503804727153	5.062802011099227	-7.258619045924112	-0.6210682004349124	5.897622299926323	-7.258619045924112	-0.8544620295461887	5.897622299926323	-5.443964284443085	-0.8544620295461887	5.897622299926323	-3.629309522962056	-0.775346476115631	2.531401005549613	-0.279102088175716	0.1041880247174339	0.1707047410066744	-8.891198270459688	2.984767046056832	1.085655466928103
35.62499999999905	4.21296440140691e-09	8.002416233845703e-10	4.440363815649541e-10	-3.97872216927308e-17	8.44526185968539e-17	-7.30666612219483e-19	-0.5758506690034751	-0.0696765430350505	0.4700113431010908	-6.169848506384644	-0.5469270626924457	5.062776644015719	-7.258627509577958	-0.6267714145698482	5.897592749989934	-7.258627509577958	-0.8623084784889303	5.897592749989934	-5.443970632183469	-0.8623084784889303	5.897592749989934	-3.629313754788979	-0.7824664139565276	2.53138832200786	-0.2791031704168373	0.1041936146569943	0.1717317330356269	-8.891232746806489	2.984927186029105	1.092186975684969
35.64999999999905	4.21296440140691e-09	8.002416233845703e-10	4.440363815649541e-10	-3.97872216927308e-17	8.44526185968539e-17	-7.30666612219483e-19	-0.5758513528199896	-0.07047599654150324	0.4700076784426715	-6.169855833013798	-0.5532023849027272	5.062737169761902	-7.258636129120539	-0.6339628535146631	5.897546766710499	-7.258636129120539	-0.872202418497193	5.897546766710499	-5.443977096840404	-0.872202418497193	5.897546766710499	-3.62931806456027	-0.7914442634747599	2.531368584880951	-0.2791043103660925	0.1041991648643826	0.1728042072455347	-8.891269061528872	2.985086187758489	1.099007744002589
35.67499999999905	4.21296440140691e-09	8.002416233845703e-10	4.440363815649541e-10	-3.97872216927308e-17	8.44526185968539e-17	-7.30666612219483e-19	-0.5758519796486347	-0.07124845604278965	0.4700042370471508	-6.169862549056669	-0.5592658172672587	5.062700100407898	-7.258644030328076	-0.6409114694078998	5.897503584881871	-7.258644030328076	-0.8817622839588513	5.897503584881871	-5.443983022746058	-0.8817622839588513	5.897503584881871	-3.629322015164038	-0.800118970766051	2.531350050203949	-0.2791053615572814	0.1042043402638608	0.1737676683484763	-8.891302548735435	2.985234452032188	1.105135206001668
35.69999999999904	4.21296440140691e-09	8.002416233845703e-10	4.440363815649541e-10	-3.97872216927308e-17	8.44526185968539e-17	-7.30666612219483e-19	-0.5758524932107982	-0.07189803572672257	0.4700021384947203	-6.169868051526179	-0.5643647026746381	5.062677495629551	-7.258650503805751	-0.6467547268319882	5.897477252735251	-7.258650503805751	-0.8898014036469208	5.897477252735251	-5.443987877854314	-0.8898014036469208	5.897477252735251	-3.629325251902876	-0.8074137397618408	2.531338747814775	-0.279106212327317	0.1042086008145201	0.1746399038735765	-8.891329651238026	2.985356507817775	1.110682487586759
